<svg width="800" height="600" viewBox="0 0 800 600" xmlns="http://www.w3.org/2000/svg">
  <defs>
    <pattern id="fruitPattern" x="0" y="0" width="200" height="200" patternUnits="userSpaceOnUse">
      <!-- Berinjela -->
      <path d="M30,50 Q30,10 50,10 Q70,10 70,50 L65,90 Q50,110 35,90 Z" fill="#5D3FD3" stroke="#4a2e9e" stroke-width="1.5"/>
      <path d="M50,10 L50,0" stroke="#4a8e2e" stroke-width="3" stroke-linecap="round"/>
      
      <!-- Cenoura -->
      <path d="M130,20 Q130,50 120,80 Q110,95 100,80 Q90,50 100,20 Z" fill="#FF7F00" stroke="#e67300" stroke-width="1.5"/>
      <path d="M115,10 Q115,20 110,20 Q105,20 105,10 Z" fill="#4a8e2e" stroke="#4a8e2e" stroke-width="1"/>
      <path d="M105,15 Q100,5 115,5 Q120,15 105,15" fill="#4a8e2e" stroke="#4a8e2e" stroke-width="1"/>
      
      <!-- Pimentão -->
      <path d="M170,50 Q190,30 180,90 Q165,110 150,90 Q140,30 170,50" fill="#F44336" stroke="#d32f2f" stroke-width="1.5"/>
      <path d="M170,50 L170,35" stroke="#4a8e2e" stroke-width="3" stroke-linecap="round"/>
      
      <!-- Alface -->
      <path d="M60,150 Q20,130 50,110 Q80,100 90,130 Q110,110 130,130 Q160,110 150,150 Z" fill="#4CAF50" stroke="#388E3C" stroke-width="1.5"/>
      
      <!-- Tomate -->
      <path d="M150,180 Q180,160 180,190 Q160,210 130,190 Q130,160 150,180" fill="#F44336" stroke="#d32f2f" stroke-width="1.5"/>
      <path d="M155,160 L155,175" stroke="#4a8e2e" stroke-width="2" stroke-linecap="round"/>
    </pattern>
  </defs>
  
  <rect width="100%" height="100%" fill="url(#fruitPattern)" opacity="0.3"/>
</svg> 